<svg width="300px" id="e43rs7Yof6p1" xmlns="http://www.w3.org/2000/svg" xmlns:xlink="http://www.w3.org/1999/xlink" viewBox="0 0 980 400" shape-rendering="geometricPrecision" text-rendering="geometricPrecision"><g id="e43rs7Yof6p2"><g id="e43rs7Yof6p3" transform="matrix(1 0 0 0.001809 30.5 365.576491)" opacity="0"><path d="M630.5,340h-61.5v-25l61.5-40.5v65.5Z" fill="#5eead4" stroke-dasharray="2,2"/><path d="M853.5,98.5l-110,152.596L706,197.5L853.5,1h64.5v339h-64.5v-241.5Z" fill="#5eead4" stroke-dasharray="2,2"/></g><g id="e43rs7Yof6p6" transform="matrix(1.000305 0.017455 0.000076 0.004339 30.351416 17.679193)" opacity="0"><path d="M639.5,1L569,1v229.5l61.5-39v-93l42,48.5L710,92.4999L639.5,1Z" fill="#5eead4" stroke-dasharray="2,2"/><path d="M531.5,45.4999C496.132,11.964,469.575,1.24376,406.5,1c-67.792,4.40012-97.834,18.3597-136,65.4999l-8,15.202l33,73.7981l9.5-21c25.041-55.1053,48.529-69.6708,101.5-76.5001c33.5,0,73.614,4.5106,89.5,23.702l35.5-36.202Z" fill="#5eead4" stroke-dasharray="2,2"/></g><g id="e43rs7Yof6p9" transform="matrix(.002594 0 0 0 412.75585 195.650178)" opacity="0"><path d="M149.5,11L8,322.5L1,340h66.5L74,322.5c0,0,68.5-217.5,104-217.5s49.5,178.349,117.5,217.5s165.5,29.5,200.5,17.5s51.199-26.119,73-39.116c23.073-13.756,43.438-27.624,61.5-42.102c28.406-22.769,51.117-47.049,69.714-74.782C730.729,138.493,750.166,83.687,765.5,11c-7.32,31.7599-23.016,63.7083-43.61,94-11.901,17.505-25.438,34.457-39.939,50.5-16.254,17.981-33.719,34.821-51.451,50.016-20.635,17.683-41.632,33.14-61.5,45.58C535.908,271.817,510.5,280,486,284.5s-77,10-107.5,0-59.764-38.994-93.501-111.5c-11.252-24.183-23.885-53.172-38.993-87.8422L244.5,81.7019C235.184,60.3252,224.934,36.8241,213.5,11h-64Z" fill="#5eead4" stroke-dasharray="2,2"/><path d="M178,191.5c-12.5,0-64.5,148.5-64.5,148.5h131c0,0-54-148.5-66.5-148.5Z" fill="#5eead4" stroke-dasharray="2,2"/><path d="M517.090464,328.805793c44.341257-14.634787,110.862642-59.122442,133.60647-88.253814" transform="matrix(.999897-.014362 0.014362 0.999897-4.028262 8.415086)" fill="#5eead4" stroke-width="1.838"/></g></g>
</svg>
