<svg width="60" height="100" viewBox="0 0 917 350" fill="none" xmlns="http://www.w3.org/2000/svg">
<path d="M148.5 10L7 321.5L0 339H66.5L73 321.5C73 321.5 141.5 104 177 104C212.5 104 226.5 282.349 294.5 321.5C362.5 360.651 460 351 495 339C530 327 546.199 312.881 568 299.884C591.073 286.128 611.438 272.26 629.5 257.782C657.906 235.013 680.617 210.733 699.214 183C729.729 137.493 749.166 82.687 764.5 10C757.18 41.7599 741.484 73.7083 720.89 104C708.989 121.505 695.452 138.457 680.951 154.5C664.697 172.481 647.232 189.321 629.5 204.516C608.865 222.199 587.868 237.656 568 250.096C534.908 270.817 509.5 279 485 283.5C460.5 288 408 293.5 377.5 283.5C347 273.5 317.736 244.506 283.999 172C272.747 147.817 260.114 118.828 245.006 84.1578L243.5 80.7019C234.184 59.3252 223.934 35.8241 212.5 10H148.5Z" fill="#5EEAD4"/>
<path d="M177 190.5C164.5 190.5 112.5 339 112.5 339H243.5C243.5 339 189.5 190.5 177 190.5Z" fill="#5EEAD4"/>
<path d="M629.5 339H568V314L629.5 273.5V339Z" fill="#5EEAD4"/>
<path d="M638.5 0H568V229.5L629.5 190.5V97.5L671.5 146L709 91.4999L638.5 0Z" fill="#5EEAD4"/>
<path d="M852.5 97.5L742.5 250.096L705 196.5L852.5 0H917V339H852.5V97.5Z" fill="#5EEAD4"/>
<path d="M530.5 44.4999C495.132 10.964 468.575 0.243762 405.5 0C337.708 4.40012 307.666 18.3597 269.5 65.4999L261.5 80.7019L294.5 154.5L304 133.5C329.041 78.3947 352.529 63.8292 405.5 56.9999C439 56.9999 479.114 61.5105 495 80.7019L530.5 44.4999Z" fill="#5EEAD4"/>
</svg>
